<!DOCTYPE svg PUBLIC "-//W3C//DTD SVG 20010904//EN" "http://www.w3.org/TR/2001/REC-SVG-20010904/DTD/svg10.dtd">
<svg version="1.0" xmlns="http://www.w3.org/2000/svg" width="32px" height="32px" viewBox="0 0 320 320" preserveAspectRatio="xMidYMid meet">
<g id="layer101" fill="#2c2834" stroke="none">
 <path d="M4 307 c-2 -7 -3 -78 -2 -157 l3 -145 155 0 155 0 3 158 3 157 -156 0 c-118 0 -157 -3 -161 -13z"/>
 </g>
<g id="layer102" fill="#7b7a7f" stroke="none">
 <path d="M14 297 c-2 -7 -3 -74 -2 -148 l3 -134 145 0 145 0 0 145 0 145 -143 3 c-111 2 -144 0 -148 -11z m276 -137 l0 -130 -130 0 -130 0 0 130 0 130 130 0 130 0 0 -130z"/>
 <path d="M91 232 c-19 -15 -22 -25 -19 -87 l3 -70 33 -3 c24 -2 32 1 32 12 0 9 -9 16 -20 16 -19 0 -21 5 -18 58 l3 57 55 0 55 0 3 -57 c3 -53 1 -58 -18 -58 -11 0 -20 -7 -20 -16 0 -11 8 -14 33 -12 l32 3 3 70 c4 86 -12 105 -88 105 -31 0 -56 -6 -69 -18z"/>
 </g>
<g id="layer103" fill="#ababaf" stroke="none">
 <path d="M14 297 c-2 -7 -3 -74 -2 -148 l3 -134 145 0 145 0 1 115 c0 63 -1 90 -3 60 -1 -30 -5 -79 -9 -107 l-5 -53 -130 0 -129 0 0 129 0 128 118 10 117 10 -123 1 c-93 2 -124 -1 -128 -11z"/>
 <path d="M103 240 c-27 -11 -35 -39 -31 -111 3 -52 4 -54 32 -54 16 0 31 6 34 13 2 7 -5 12 -17 12 -19 0 -21 6 -21 59 0 65 6 71 65 71 47 0 69 -24 61 -69 -3 -20 -6 -41 -6 -47 0 -7 -9 -14 -20 -17 -33 -9 -23 -29 13 -25 l32 3 3 71 c2 55 -1 74 -13 84 -20 16 -103 23 -132 10z"/>
 </g>
<g id="layer104" fill="#e9eaeb" stroke="none">
 <path d="M87 223 c-4 -3 -7 -37 -7 -75 l0 -68 33 1 c31 2 31 2 4 6 l-29 4 4 70 c2 38 3 69 2 69 0 0 -4 -3 -7 -7z"/>
 </g>

</svg>